<svg width="28" height="29" viewBox="0 0 28 29" fill="none" xmlns="http://www.w3.org/2000/svg">
<path fill-rule="evenodd" clip-rule="evenodd" d="M12.5651 0.335757C13.1982 0.014847 13.9515 0.031952 14.5741 0.37288C18.6761 2.61917 23.1287 3.79158 25.4864 4.3013C26.4538 4.51045 27.1797 5.35858 27.1381 6.34743C26.4767 22.0689 16.8374 27.5945 14.2276 28.8067C13.8113 29.0001 13.3487 29.0001 12.9325 28.8067C10.3203 27.5934 0.666102 22.059 0.0201706 6.30517C-0.0195984 5.33523 0.679138 4.49724 1.62381 4.27371C3.90423 3.73411 8.24458 2.52567 12.5651 0.335757ZM14.1253 6.47109C13.9756 6.01043 13.3239 6.01043 13.1742 6.47109L11.863 10.5067C11.796 10.7127 11.6041 10.8522 11.3874 10.8522H7.14415C6.65979 10.8522 6.4584 11.472 6.85026 11.7567L10.2832 14.2508C10.4584 14.3782 10.5317 14.6038 10.4648 14.8099L9.15354 18.8455C9.00386 19.3061 9.5311 19.6892 9.92296 19.4045L13.3559 16.9103C13.5311 16.783 13.7684 16.783 13.9436 16.9103L17.3765 19.4045C17.7684 19.6892 18.2956 19.3061 18.146 18.8455L16.8347 14.8099C16.7678 14.6038 16.8411 14.3782 17.0163 14.2508L20.4492 11.7567C20.8411 11.472 20.6397 10.8522 20.1553 10.8522H15.912C15.6954 10.8522 15.5035 10.7127 15.4365 10.5067L14.1253 6.47109Z" fill="#2C2D84"/>
</svg>
