<svg width="42" height="45" viewBox="0 0 42 45" fill="none" xmlns="http://www.w3.org/2000/svg">
<path fill-rule="evenodd" clip-rule="evenodd" d="M19.8809 0.53844C20.5108 0.211093 21.2649 0.227991 21.8827 0.577461C28.9026 4.54821 36.7319 6.42801 40.0979 7.10346C41.0683 7.29818 41.7891 8.15846 41.7621 9.14782C41.0639 34.7933 24.98 43.2228 21.5375 44.7362C21.1174 44.9208 20.6681 44.9208 20.248 44.7362C16.8035 43.222 0.703645 34.7839 0.0221782 9.10488C-0.00357452 8.13447 0.69037 7.28497 1.63793 7.07403C4.88232 6.35179 12.4558 4.3976 19.8809 0.53844ZM21.4754 9.4635C21.3257 9.00285 20.674 9.00285 20.5244 9.4635L18.1935 16.6373C18.1265 16.8433 17.9345 16.9828 17.7179 16.9828H10.175C9.69063 16.9828 9.48924 17.6026 9.8811 17.8873L15.9835 22.3209C16.1587 22.4482 16.232 22.6739 16.1651 22.8799L13.8342 30.0537C13.6845 30.5143 14.2118 30.8974 14.6036 30.6127L20.706 26.1791C20.8812 26.0517 21.1185 26.0517 21.2938 26.1791L27.3961 30.6127C27.788 30.8974 28.3152 30.5143 28.1656 30.0537L25.8347 22.8799C25.7677 22.6739 25.8411 22.4482 26.0163 22.3209L32.1187 17.8873C32.5105 17.6026 32.3091 16.9828 31.8248 16.9828H24.2818C24.0652 16.9828 23.8732 16.8433 23.8063 16.6373L21.4754 9.4635Z" fill="white"/>
</svg>
