<svg width="45" height="59" viewBox="0 0 45 59" fill="none" xmlns="http://www.w3.org/2000/svg">
<path fill-rule="evenodd" clip-rule="evenodd" d="M45 22.458C45 10.0548 34.9264 0 22.5 0C10.0736 0 0 10.0548 0 22.458C0 32.5858 10.5107 45.3617 18.4327 54.991C19.2958 56.0401 20.1281 57.0518 20.9128 58.0187C21.7282 59.0234 23.2718 59.0234 24.0872 58.0186C24.8721 57.0514 25.7049 56.0391 26.5684 54.9895C34.4893 45.3615 45 32.5855 45 22.458ZM22.5 30C26.6421 30 30 26.6421 30 22.5C30 18.3579 26.6421 15 22.5 15C18.3579 15 15 18.3579 15 22.5C15 26.6421 18.3579 30 22.5 30Z" fill="#343434"/>
</svg>
