<svg width="217" height="56" viewBox="0 0 217 56" fill="none" xmlns="http://www.w3.org/2000/svg">
<path d="M66.0743 9.64425H72.0681C75.3781 9.64425 76.72 11.3803 76.72 13.2904C76.72 14.927 75.8291 15.9794 74.8181 16.3965C75.7932 16.7473 77.1531 17.7638 77.1531 19.7111C77.1531 22.2565 75.1698 23.976 72.2529 23.976H66.0674V9.64425H66.0743ZM71.7233 15.3966C73.399 15.3966 74.0583 14.695 74.0583 13.5528C74.0583 12.4161 73.2321 11.7504 71.8653 11.7504H68.7237V15.3966H71.7233ZM68.7237 21.8574H71.7647C73.4818 21.8574 74.4155 21.1143 74.4155 19.6448C74.4155 18.3604 73.5645 17.5152 71.6226 17.5152H68.7292V21.8574H68.7237ZM87.5793 20.8643C87.5793 21.9002 87.5793 23.1183 87.6026 23.9691H85.1025C85.0612 23.679 85.0432 23.0769 85.0198 22.6253C84.4199 23.7191 83.4448 24.219 82.0008 24.219C79.9514 24.219 78.4661 23.041 78.4661 20.287V13.3318H81.0327V19.7691C81.0327 21.0121 81.4064 22.0894 82.8504 22.0894C84.4006 22.0894 85.0254 21.2386 85.0254 18.9667V13.3318H87.5905V20.8643H87.5793ZM98.5573 20.5964C98.1663 22.3753 96.925 24.219 93.9073 24.219C90.7213 24.219 88.988 21.9817 88.988 18.7098C88.988 15.6231 90.8292 13.0763 94.0549 13.0763C97.4473 13.0763 98.4822 15.5209 98.5642 16.7832H96.0394C95.8323 15.8302 95.2729 15.1286 93.9902 15.1286C92.458 15.1286 91.6138 16.4545 91.6138 18.627C91.6138 20.9472 92.4813 22.1902 93.9721 22.1902C95.089 22.1902 95.7071 21.548 96.0213 20.5964H98.5591H98.5573ZM102.283 18.0082C103.109 16.9489 104.826 15.0278 106.293 13.3263H109.27L105.467 17.384L109.643 23.9691H106.708L103.732 19.0441L102.285 20.4293V23.9691H99.7166V8.83493H102.283V18.0082ZM110.053 8.83493H112.62V11.3389H110.054V8.83493H110.053ZM110.053 13.3263H112.62V23.9691H110.054V13.3277L110.053 13.3263ZM114.645 15.9973C114.645 15.0872 114.645 14.1356 114.622 13.3263H117.105C117.165 13.6177 117.207 14.4864 117.207 14.8193C117.58 14.0762 118.448 13.0818 120.374 13.0818C122.464 13.0818 123.908 14.4505 123.908 17.1809V23.976H121.341V17.471C121.341 16.1451 120.866 15.1921 119.459 15.1921C117.949 15.1921 117.207 16.1686 117.207 18.1325V23.9746H114.64V15.996H114.645V15.9973ZM135.261 22.791C135.261 26.2065 133.936 28.3016 130.11 28.3016C126.45 28.3016 125.6 26.2479 125.476 24.969H128.084C128.332 25.8377 129.017 26.3777 130.211 26.3777C132.302 26.3777 132.735 25.0933 132.735 22.8808V22.262C132.178 23.273 131.269 23.8738 129.634 23.8738C126.908 23.8738 125.232 21.6364 125.232 18.6739C125.232 15.3013 127.24 13.0818 129.866 13.0818C131.768 13.0818 132.558 13.974 132.741 14.5347C132.765 14.1826 132.824 13.5224 132.842 13.3332H135.284C135.267 14.1591 135.267 15.3606 135.267 16.3965V22.791H135.261ZM130.342 21.7745C132.284 21.7745 132.824 20.4293 132.824 18.4598C132.824 16.4503 132.409 15.1701 130.406 15.1701C128.898 15.1701 127.883 16.3716 127.883 18.5676C127.883 20.537 128.892 21.7745 130.342 21.7745ZM139.788 8.83493V14.695C140.281 13.9091 141.171 13.0818 142.931 13.0818C144.813 13.0818 146.489 14.177 146.489 17.163V23.976H143.946V17.5566C143.946 16.0208 143.369 15.1949 142.021 15.1949C140.287 15.1949 139.788 16.4379 139.788 18.2582V23.976H137.221V8.83907H139.788V8.83354V8.83493ZM156.891 21.3643C156.891 22.3573 156.975 23.7011 157.034 23.9691H154.574C154.491 23.7439 154.432 23.2026 154.408 22.8089C154.033 23.4512 153.268 24.219 151.324 24.219C148.783 24.219 147.707 22.541 147.707 20.9044C147.707 18.5013 149.632 17.3826 152.75 17.3826H154.36V16.6575C154.36 15.8316 154.094 14.9629 152.501 14.9629C151.093 14.9629 150.807 15.6051 150.66 16.3896H148.199C148.343 14.6535 149.442 13.0583 152.602 13.0763C155.371 13.0943 156.885 14.195 156.885 16.681V21.3629H156.891V21.3643ZM154.39 19.0026H153C151.116 19.0026 150.292 19.5606 150.292 20.7621C150.292 21.6322 150.867 22.3394 152.009 22.3394C154.117 22.3394 154.385 20.8878 154.385 19.3175V19.0012H154.39V19.0026ZM158.893 16.0622C158.893 15.1521 158.893 14.2185 158.87 13.3318H161.329C161.37 13.5997 161.411 14.2668 161.436 14.7184C161.953 13.8677 162.844 13.0818 164.436 13.0818C165.945 13.0818 166.854 13.8677 167.246 14.8013C167.846 13.8911 168.797 13.0818 170.555 13.0818C172.373 13.0818 173.923 14.177 173.923 16.9973V23.976H171.399V17.3052C171.399 16.2473 171.025 15.177 169.664 15.177C168.256 15.177 167.68 16.17 167.68 17.8894V23.976H165.155V17.3881C165.155 16.21 164.846 15.1921 163.461 15.1921C162.078 15.1921 161.436 16.1451 161.436 18.0483V23.9732H158.893V16.0622ZM177.506 20.8229C177.756 21.7745 178.498 22.3145 179.716 22.3145C180.957 22.3145 181.433 21.8394 181.433 21.0964C181.433 20.287 180.957 19.9542 179.283 19.5426C175.955 18.7347 175.373 17.6989 175.373 16.2294C175.373 14.677 176.466 13.0818 179.507 13.0818C182.568 13.0818 183.683 14.7778 183.791 16.2528H181.332C181.23 15.7529 180.875 14.927 179.407 14.927C178.249 14.927 177.898 15.4684 177.898 16.0208C177.898 16.6216 178.272 16.9323 180.066 17.366C183.5 18.1505 184.059 19.3355 184.059 20.9058C184.059 22.6846 182.674 24.2204 179.633 24.2204C176.549 24.2204 175.231 22.7081 174.981 20.8229H177.506ZM187.759 8.83493V14.695C188.253 13.9091 189.144 13.0818 190.902 13.0818C192.786 13.0818 194.46 14.177 194.46 17.163V23.976H191.918V17.5566C191.918 16.0208 191.343 15.1949 189.993 15.1949C188.253 15.1949 187.759 16.4379 187.759 18.2582V23.976H185.194V8.83907H187.759V8.83354V8.83493ZM196.445 8.83493H199.012V11.3389H196.445V8.83493ZM196.445 13.3263H199.012V23.9691H196.445V13.3277V13.3263ZM201.015 16.2059C201.015 15.0043 201.015 14.1121 200.99 13.3263H203.514C203.556 13.5749 203.574 14.5693 203.574 15.2957C204.073 14.0113 205.249 13.0998 207.049 13.0818V15.5692C204.899 15.5457 203.574 16.3122 203.574 19.1504V23.976H201.008V16.2059H201.015ZM209.783 19.1863C209.783 20.7801 210.59 22.1667 212.183 22.1667C213.55 22.1667 213.982 21.5425 214.273 20.8643H216.858C216.467 22.1902 215.308 24.2204 212.099 24.2204C208.666 24.2204 207.198 21.5659 207.198 18.7927C207.198 15.5043 208.873 13.0763 212.224 13.0763C215.8 13.0763 217 15.7474 217 18.2762C217 18.627 217 18.8769 216.959 19.1863H209.783ZM214.41 17.5497C214.386 16.1216 213.769 14.9629 212.201 14.9629C210.625 14.9629 209.99 16.0401 209.842 17.5497H214.41ZM77.9433 41.864C77.3434 44.4522 75.4016 46.3388 71.9495 46.3388C67.5059 46.3388 65.3558 43.1264 65.3558 39.0507C65.3558 35.1367 67.5472 31.6135 72.0736 31.6135C75.7147 31.6135 77.5517 33.7445 77.9433 36.1476H75.2581C74.8843 34.8867 74.0168 33.768 71.9675 33.768C69.216 33.768 68.1237 36.254 68.1237 38.9679C68.1237 41.5132 69.1167 44.2092 72.0501 44.2092C74.141 44.2092 74.8843 42.8819 75.2581 41.8709H77.9433V41.864ZM89.0294 40.8061C89.0294 43.9771 87.1701 46.3982 83.8365 46.3982C80.6107 46.3982 78.728 44.0365 78.728 40.8462C78.728 37.6171 80.652 35.2555 83.962 35.2555C87.0441 35.2555 89.0294 37.4735 89.0294 40.8061ZM81.3361 40.8227C81.3361 42.9772 82.3098 44.3445 83.9013 44.3445C85.5122 44.3445 86.4028 43.0007 86.4028 40.8475C86.4028 38.5508 85.5122 37.3078 83.8614 37.3078C82.2863 37.3078 81.3361 38.5093 81.3361 40.8227ZM99.4499 43.0421C99.4499 44.0779 99.4499 45.2975 99.4732 46.1482H96.9717C96.9302 45.8568 96.9121 45.256 96.8888 44.803C96.2889 45.8982 95.3152 46.3982 93.8711 46.3982C91.8219 46.3982 90.3363 45.2201 90.3363 42.4648V35.5041H92.9017V41.9483C92.9017 43.1913 93.2772 44.2685 94.7205 44.2685C96.2708 44.2685 96.894 43.4178 96.894 41.139V35.5041H99.4611V43.0421H99.4499ZM101.475 38.1765C101.475 37.265 101.475 36.3134 101.451 35.5054H103.933C103.995 35.7955 104.036 36.6656 104.036 36.997C104.41 36.254 105.277 35.2555 107.202 35.2555C109.293 35.2555 110.737 36.6227 110.737 39.3532V46.1482H108.171V39.646C108.171 38.3187 107.694 37.3672 106.288 37.3672C104.777 37.3672 104.036 38.3422 104.036 40.3062V46.1482H101.471V38.1765H101.475ZM121.632 42.7742C121.241 44.553 119.998 46.3982 116.98 46.3982C113.796 46.3982 112.063 44.1608 112.063 40.8876C112.063 37.8008 113.904 35.2555 117.13 35.2555C120.522 35.2555 121.555 37.7 121.639 38.961H119.114C118.906 38.0094 118.347 37.3009 117.063 37.3009C115.532 37.3009 114.689 38.6281 114.689 40.7992C114.689 43.1195 115.554 44.3625 117.047 44.3625C118.164 44.3625 118.78 43.7202 119.096 42.7687H121.632V42.7742ZM122.856 31.0127H125.422V33.518H122.857V31.0127H122.856ZM122.856 35.5054H125.422V46.1482H122.857V35.5041L122.856 35.5054ZM129.991 31.0127H127.425V46.1482H129.99L129.991 31.0127ZM27.5832 0C12.4814 0 0.0468915 12.4161 0 27.5323L1.4495 27.5392C1.5088 13.9326 12.0594 2.81331 25.4207 1.87416C26.14 1.81431 26.8614 1.78436 27.5832 1.78439C41.8355 1.78439 53.3901 13.3553 53.3901 27.6276C53.3901 36.022 49.3919 43.4772 43.2078 48.1936C39.2193 51.2392 34.4279 53.0493 29.4244 53.4004C28.819 53.4418 28.2066 53.4653 27.5902 53.4653H27.5653V53.5012C26.8054 53.4833 25.629 53.3769 25.6166 52.7996C25.6055 52.3231 25.9668 51.9364 26.3172 51.663C26.7861 51.2942 27.3391 51.0318 27.8867 50.7998C28.4093 50.5747 28.9431 50.3716 29.4837 50.181C29.6573 50.1309 29.8192 50.0464 29.9595 49.9325C30.0617 49.8425 30.1309 49.7208 30.1559 49.5868C30.1809 49.4529 30.1603 49.3144 30.0975 49.1936C29.9416 48.9077 29.6148 48.7419 29.3292 48.6163C28.1707 48.1232 22.5272 48.224 21.8211 48.2365H21.7494C21.7729 48.242 28.2177 48.9615 28.2245 49.3552C28.2369 49.7529 23.6154 50.6575 23.5313 53.5302C23.5078 54.3106 24.3574 54.5536 24.6842 54.6669C25.8193 55.0536 26.3241 55.2138 27.5005 55.2442H28.1707C29.0752 55.2394 29.9783 55.1739 30.8739 55.0481C44.4793 53.4004 55.172 41.6679 55.172 27.6276C55.1665 12.4714 42.714 0 27.5832 0Z" fill="white"/>
<path d="M26.3007 37.9804L27.1971 37.5633C27.1971 37.5633 17.5968 27.3777 1.41366 29.8775L0.0827637 30.0252C0.70578 35.6399 3.03236 40.9284 6.74902 45.1783C10.4657 49.4282 15.3938 52.4351 20.8695 53.794L21.297 52.0677C11.7284 49.706 4.4092 42.0629 2.31287 32.6038C5.09877 31.9905 14.4495 30.7586 26.302 37.9804H26.3007Z" fill="white"/>
<path d="M51.7986 25.081C51.7503 25.005 51.7434 24.8324 51.7917 24.773C51.9572 24.57 51.9158 24.3918 51.7806 24.2206C51.6496 24.059 51.5545 23.8919 51.5669 23.6667C51.5724 23.5839 51.5118 23.4458 51.4469 23.4168C51.2153 23.298 51.2221 23.095 51.2276 22.8754C51.2331 22.7262 51.1738 22.566 51.2042 22.4224C51.2924 21.9818 50.7945 22.0067 50.7049 21.7042C50.6925 21.6614 50.6097 21.6434 50.5559 21.62C50.5449 21.613 50.5201 21.62 50.5091 21.613C50.3022 21.5191 50.0871 21.4418 49.8843 21.323C49.7422 21.2401 49.6291 21.1145 49.4981 21.0067C49.3202 20.5786 49.3023 20.5662 48.9575 20.5841C48.7327 20.1505 48.5479 20.5482 48.341 20.6325C48.2997 20.5731 48.2748 20.4888 48.221 20.4598C48.0611 20.3631 48.0431 20.0427 47.8004 20.109C47.5922 20.1615 47.4432 20.156 47.3549 19.9295C47.337 19.888 47.2777 19.859 47.2349 19.8342C47.057 19.7334 46.8791 19.6381 46.6529 19.5138C46.333 19.6146 45.9468 19.7278 45.6379 19.8287C45.4531 19.8231 45.2751 19.7637 45.2269 19.8176C45.02 20.0731 44.8408 20.3521 44.6752 20.638C44.5566 20.8341 44.1884 20.9059 44.045 20.7512C43.914 20.8106 43.7967 20.9004 43.6712 20.917C43.5112 20.9418 43.4629 21.0247 43.3981 21.1669C43.3153 21.3575 43.2023 21.6089 43.0409 21.6669C42.7085 21.7981 42.7555 22.1917 42.5003 22.3809C42.4175 22.4403 42.3872 22.5715 42.3527 22.7083C42.3996 22.7317 42.4644 22.7497 42.4713 22.7801C42.5541 23.0839 43.0534 23.0591 42.9692 23.4996C42.9403 23.6419 42.9941 23.8035 42.9941 23.9513C42.9871 24.1722 42.9816 24.3739 43.2188 24.4926C43.285 24.5286 43.343 24.6584 43.3388 24.7426C43.3264 24.9691 43.4271 25.1293 43.5526 25.2895C43.6891 25.4622 43.7305 25.6417 43.5636 25.8434C43.5167 25.9028 43.5222 26.0754 43.5705 26.1527C43.7181 26.4027 43.9084 26.6292 43.6533 26.9386C43.605 26.998 43.6298 27.1292 43.6174 27.2424C43.4161 27.201 43.3443 27.3073 43.3443 27.5035C43.3443 27.5573 43.303 27.6402 43.2616 27.6581C42.9941 27.7714 43.0299 28.0214 43.005 28.2465C42.9941 28.3363 42.9581 28.4606 42.9044 28.4965C43.0354 28.6622 43.2257 28.8417 43.5043 28.6622C43.5457 28.6346 43.707 28.6995 43.725 28.7465C43.8077 29.0627 44.6752 29.7643 44.9483 29.7519C45.3703 29.7339 45.7799 29.4784 46.213 29.6635C46.1895 30.4784 46.1482 31.6743 46.0944 32.2088C46.053 32.6439 45.9647 32.9947 45.8627 33.2806C43.707 33.1978 41.117 33.3221 38.4428 33.9574C38.3672 33.7672 38.3193 33.5672 38.3007 33.3635C38.2469 32.7738 38.218 31.412 38.2001 30.633C38.2469 30.633 38.3062 30.6151 38.36 30.6096C38.4786 30.6027 39.1089 30.6441 39.3227 30.5198L39.4109 30.6993C39.5723 30.7214 39.7199 30.6924 39.7971 30.7629C39.9282 30.8761 40.0053 30.8651 40.1239 30.7629C40.1957 30.7035 40.3088 30.6855 40.3971 30.6441C40.4743 30.6151 40.5998 30.5971 40.6177 30.5377C40.7005 30.2643 40.9681 30.2574 41.1349 30.1206C41.2356 30.0378 41.3183 29.9301 41.408 29.8348C41.4494 29.7933 41.4783 29.7339 41.5321 29.7105C41.888 29.5613 42.0728 29.3058 42.0313 28.8901C42.0135 28.7174 42.0548 28.5807 42.2327 28.5034C42.2396 28.5034 42.2396 28.4965 42.2451 28.4965C42.2989 28.455 42.3347 28.3307 42.3458 28.2479C42.3762 28.0214 42.3403 27.7714 42.6023 27.6581C42.6437 27.6402 42.6851 27.5573 42.6851 27.5035C42.6851 27.3073 42.7555 27.2065 42.9581 27.241C42.9706 27.1223 42.9457 26.998 42.9941 26.9372C43.2423 26.6347 43.0534 26.4082 42.9044 26.1527C42.8575 26.0754 42.8506 25.9041 42.8988 25.8434C43.0643 25.6417 43.023 25.4622 42.8864 25.2909C42.7623 25.1293 42.6616 24.9691 42.6727 24.7426C42.6796 24.6598 42.6189 24.5217 42.5486 24.494C42.3169 24.3739 42.3224 24.1722 42.3278 23.9513C42.3278 23.8035 42.2754 23.6419 42.3044 23.4996C42.3872 23.0591 41.8949 23.0825 41.8052 22.7801C41.7941 22.7442 41.7335 22.7262 41.6866 22.7083C41.6811 22.7027 41.6686 22.7027 41.6631 22.6958C41.6508 22.6903 41.6273 22.6958 41.6148 22.6903C41.408 22.595 41.1942 22.5177 40.9915 22.4003C40.8495 22.316 40.7363 22.1903 40.6053 22.0826C40.4261 21.6545 40.4095 21.6434 40.0646 21.6614C39.8385 21.2277 39.6551 21.6255 39.4469 21.7083C39.4054 21.649 39.382 21.5661 39.3282 21.5371C39.1682 21.4404 39.1558 21.12 38.9131 21.1849C38.7049 21.2401 38.5559 21.2332 38.4663 21.0067C38.4497 20.9653 38.389 20.9349 38.3476 20.9114C38.1697 20.8106 37.9863 20.7153 37.7656 20.591C37.4456 20.6919 37.0594 20.8051 36.7506 20.9059C36.5658 20.9004 36.3878 20.8396 36.3395 20.8935C36.1327 21.149 35.9534 21.4294 35.7879 21.7152C35.6679 21.9114 35.2941 21.9818 35.1577 21.8285C35.0266 21.8879 34.9094 21.9763 34.7839 21.9942C34.6225 22.0177 34.5756 22.102 34.5108 22.2442C34.428 22.4348 34.3136 22.6848 34.1536 22.7442C33.8212 22.8754 33.8626 23.2676 33.613 23.4582C33.4709 23.5645 33.4764 23.8684 33.3758 24.059C33.306 24.1843 33.2003 24.2858 33.0724 24.3504C32.8517 24.4581 32.7937 24.5465 32.8765 24.7965C32.8999 24.8794 32.9482 24.9622 32.9413 25.0409C32.9054 25.3144 32.8406 25.5879 32.8048 25.8613C32.7993 25.8793 32.7993 25.9028 32.7993 25.9207C32.7344 26.3668 32.6682 26.8129 32.6338 27.2604C32.62 27.4316 32.6751 27.6167 32.722 27.7893C32.7993 28.0683 32.9772 28.7534 33.1206 28.7534C33.3274 28.7534 33.4999 28.7824 33.3867 29.0986C33.6543 29.1221 33.7909 29.2699 33.9522 29.4674C34.0888 29.6386 34.2902 29.9729 34.6418 29.7464C34.6653 29.7339 34.7122 29.7408 34.759 29.7588C34.8073 29.7754 34.8555 29.8058 34.8611 29.8292C34.9439 30.1455 35.8114 30.8471 36.0844 30.8347C36.3878 30.8236 37.1602 30.6855 37.6884 30.633C37.665 31.4355 37.6235 32.8152 37.5642 33.4049C37.5339 33.7267 37.4746 33.9988 37.4098 34.2377C36.5961 34.4753 35.7879 34.7625 34.9797 35.112C33.3923 35.8064 31.8197 36.5344 30.2629 37.2955C30.1554 37.069 30.0423 36.6947 29.983 36.058C29.9361 35.5525 29.9058 34.351 29.8947 33.7143C30.0065 33.7087 30.543 33.7447 30.7195 33.6369C30.7608 33.7143 30.7912 33.7681 30.7967 33.7916C30.9346 33.8095 31.0642 33.7861 31.1305 33.8455C31.2421 33.9408 31.3084 33.9284 31.4146 33.8455C31.4808 33.7916 31.5759 33.7792 31.6532 33.7447C31.718 33.7198 31.8311 33.7032 31.8422 33.6549C31.9193 33.4284 32.1456 33.4229 32.2876 33.3041C32.3703 33.2323 32.4421 33.1425 32.5261 33.0665C32.5621 33.0306 32.591 32.9768 32.6324 32.9643C32.9413 32.84 33.1013 32.6259 33.0668 32.2806C33.0489 32.1371 33.0847 32.0252 33.2392 31.9589C33.293 31.9354 33.3219 31.8166 33.3343 31.7379C33.3578 31.5487 33.3274 31.3402 33.5537 31.2449C33.5895 31.2268 33.6254 31.1565 33.6254 31.115C33.6254 30.9479 33.6847 30.8651 33.8626 30.901C33.875 30.7988 33.8502 30.698 33.8929 30.6441C34.0819 30.419 33.9812 30.2463 33.8626 30.0668C33.8212 30.0557 33.7798 30.0433 33.7619 30.0557C33.4585 30.2394 33.2792 29.9604 33.1675 29.8237C33.0309 29.658 32.9123 29.5323 32.6807 29.5143C32.7758 29.2519 32.6324 29.2285 32.449 29.2285C32.3248 29.2285 32.169 28.6512 32.1041 28.4191C32.0628 28.2769 32.0145 28.1222 32.027 27.973C32.0628 27.5988 32.1166 27.23 32.1759 26.8543C32.169 26.8488 32.1634 26.8488 32.1579 26.8488C32.0338 26.7839 31.9318 26.6693 31.8256 26.5809C31.6697 26.2246 31.6587 26.2121 31.3567 26.2301C31.1595 25.8668 31.0049 26.2011 30.8215 26.2715C30.7857 26.219 30.7622 26.1527 30.7195 26.1293C30.5774 26.0519 30.5719 25.784 30.3582 25.8309C30.1789 25.8724 30.0492 25.8724 29.972 25.6832C29.9595 25.6473 29.9058 25.6238 29.8699 25.6058C29.7154 25.523 29.561 25.4401 29.3651 25.3379C29.0866 25.4208 28.7528 25.523 28.4866 25.6003C28.3253 25.5934 28.1708 25.5395 28.1294 25.5934C27.9515 25.8075 27.7971 26.0395 27.6481 26.2784C27.5474 26.4441 27.2261 26.5035 27.1019 26.3737C26.9889 26.4207 26.8881 26.498 26.7751 26.5104C26.6331 26.527 26.5958 26.5988 26.5378 26.7176C26.4661 26.8792 26.3724 27.0864 26.2344 27.1402C25.9448 27.248 25.9862 27.5808 25.7656 27.7355C25.6414 27.8253 25.647 28.0739 25.5586 28.241C25.4968 28.3486 25.4027 28.4341 25.2898 28.4854C25.0994 28.5738 25.0469 28.6512 25.1173 28.8542C25.1422 28.9191 25.1835 28.9964 25.1725 29.0558C25.1422 29.2878 25.0884 29.5143 25.0525 29.7464C24.9932 30.1331 24.9339 30.5253 24.898 30.912C24.8856 31.0557 24.9339 31.2103 24.9753 31.3581C25.0401 31.5901 25.1959 32.1674 25.3201 32.1674C25.5035 32.1674 25.647 32.1908 25.5517 32.4533C25.7834 32.4767 25.9021 32.5956 26.0386 32.7627C26.1572 32.905 26.3351 33.1853 26.6317 32.9946C26.6689 32.9712 26.811 33.0237 26.8233 33.0665C26.8937 33.329 27.6481 33.9173 27.8853 33.9049C28.1832 33.8924 28.9914 33.7502 29.4369 33.7253C29.4134 34.3869 29.3831 35.594 29.3293 36.1008C29.2341 37.04 29.0327 37.6408 28.8728 37.9791C22.6886 41.0673 16.8893 44.4054 16.8893 44.4054H18.3097C19.7827 43.5781 28.8245 39.2594 35.2045 37.7775C41.5859 36.2956 50.3836 37.1284 50.3836 37.1284L51.3283 33.9933C51.3283 33.9933 49.6775 33.5596 47.1633 33.358C47.0075 32.9801 46.9116 32.5803 46.8791 32.173C46.8253 31.5971 46.7964 30.2643 46.7785 29.4798C46.876 29.4887 46.9717 29.512 47.0625 29.5489C47.1218 29.5737 47.1936 29.5378 47.2653 29.5323C47.3839 29.5254 47.5329 29.4729 47.6156 29.5254C47.8418 29.6746 48.0197 29.5668 48.2279 29.4425L48.3162 29.6276C48.4706 29.6511 48.6196 29.6207 48.7023 29.687C48.8334 29.8002 48.9106 29.7878 49.0292 29.687C49.1065 29.6276 49.214 29.6096 49.3023 29.5682C49.3795 29.5378 49.505 29.5199 49.523 29.4605C49.6057 29.187 49.8732 29.1815 50.0388 29.0448C50.1408 28.9619 50.2236 28.8542 50.3132 28.7589C50.3547 28.7174 50.3836 28.6581 50.4373 28.6346C50.7945 28.4854 50.978 28.2285 50.9366 27.8128C50.9187 27.6402 50.9601 27.509 51.138 27.4261C51.1987 27.3957 51.24 27.2604 51.2511 27.1637C51.2814 26.9386 51.2455 26.6886 51.5062 26.5754C51.5476 26.5574 51.5889 26.4745 51.5889 26.4207C51.5889 26.2246 51.662 26.1237 51.8634 26.1583C51.8758 26.0395 51.851 25.9152 51.8992 25.8544C52.1364 25.5575 51.9462 25.3324 51.7986 25.081ZM27.6067 16.8538C27.5833 16.8068 27.3281 16.8013 27.1915 16.7529C27.0732 16.6816 26.9615 16.5998 26.8578 16.5085C26.8578 16.5085 26.7875 16.4491 26.7627 16.4491C26.7337 16.4491 26.5199 16.8013 26.5738 16.8482C26.6262 16.8897 26.7875 16.9131 26.9944 16.9131C27.1792 16.9201 27.4702 16.938 27.5833 16.9131C27.6067 16.8952 27.6192 16.8772 27.6067 16.8538Z" fill="white"/>
<path d="M26.4965 16.9599C26.4785 16.9253 26.4661 16.8839 26.455 16.848C26.4498 16.8262 26.4439 16.8045 26.4372 16.7831C26.3782 16.6742 26.2997 16.5773 26.2055 16.4972C26.1925 16.5035 26.1785 16.5073 26.164 16.5082C26.1089 16.5152 26.0675 16.4917 26.062 16.4613C26.0565 16.4254 26.0978 16.3964 26.1516 16.3895C26.1663 16.3865 26.1815 16.3872 26.1958 16.3913C26.2102 16.3953 26.2234 16.4028 26.2344 16.413L26.633 16.2942C26.4745 16.2313 26.3038 16.2048 26.1337 16.2168C25.8193 16.2348 25.5034 16.3895 25.2897 16.5152C25.2706 16.5216 25.2505 16.5253 25.2303 16.5262C25.0469 16.5566 21.7783 16.8784 21.559 16.8356C21.3342 16.7941 20.2171 16.5566 20.1385 16.3784C20.0627 16.2058 20.9591 13.9988 21.0253 13.8676C21.3398 13.1895 21.6776 12.2254 21.6776 12.2254C21.6776 12.2254 22.1411 10.0364 21.7742 9.94662C21.7011 9.92867 21.5301 10.6427 21.3467 10.7684C21.1798 10.8802 21.1315 10.1248 20.9122 10.3099C20.7922 10.4107 20.8157 11.1012 20.6736 10.8623C20.2516 10.1552 20.3234 11.1247 20.2281 11.1965C19.5096 11.72 18.8918 12.3387 18.7662 12.5818C18.4628 13.0762 17.787 14.9683 17.6491 14.9628C17.3595 14.9559 14.7874 12.173 14.6081 12.0583C14.4357 11.9396 13.2069 10.4645 12.9806 9.22707C12.9213 8.90527 12.6414 8.91218 12.7434 10.5364C12.7545 10.738 12.1615 9.7215 12.0842 10.0599C11.9945 10.4521 12.3738 10.8209 12.2442 11.1247C12.2208 11.1841 11.7753 10.9231 11.7753 11.1302C11.7753 12.7972 13.6095 16.4323 14.9888 16.9557C16.3679 17.4792 12.7614 18.0081 12.5766 18.0855C12.3931 18.1628 12.2566 18.3645 12.4993 18.4183C13.0234 18.5012 12.458 18.8175 12.6538 18.9542C12.7545 18.9777 12.8675 18.9832 12.9338 19.055C12.9986 19.1503 12.7365 19.4887 12.8442 19.537C12.9503 19.584 14.5129 19.0371 15.1432 18.9652C15.4521 18.9307 16.4327 19.1862 17.2643 18.9652C18.096 18.7456 19.8654 17.7167 20.2406 17.6518C20.6143 17.5855 25.5393 17.2098 25.5393 17.2098C25.9737 17.2513 26.5144 17.1215 26.633 17.0856C26.5916 17.0925 26.5364 17.0441 26.4951 16.9613L26.4965 16.9599Z" fill="white"/>
</svg>
