<svg width="418" height="94" viewBox="0 0 418 94" fill="none" xmlns="http://www.w3.org/2000/svg">
<path fill-rule="evenodd" clip-rule="evenodd" d="M53.3013 2.67949C47.1132 -0.893164 39.4893 -0.893164 33.3013 2.67949L10 16.1325C3.81198 19.7051 0 26.3077 0 33.453V60.359C0 67.5043 3.81198 74.1068 10 77.6795L33.3013 91.1325C39.4893 94.7051 47.1132 94.7051 53.3013 91.1325L76.6025 77.6795C82.7906 74.1068 86.6025 67.5043 86.6025 60.359V33.453C86.6025 26.3077 82.7906 19.7051 76.6025 16.1325L53.3013 2.67949ZM65.7605 29.9417L70.8548 34.9611C71.7794 35.871 72.3014 37.1168 72.3013 38.4174C72.3013 39.7181 71.7793 40.9639 70.8547 41.875L65.7604 46.8953C64.8915 47.7603 63.7173 48.2457 62.4916 48.2457H41.6764V73.6553C41.6764 75.4521 40.2297 76.9062 38.4406 76.9062C36.6556 76.9062 35.2073 75.4521 35.2073 73.6553V56.1205H19.2183C18.1826 56.1205 17.2304 55.5535 16.7322 54.6405L14.6493 50.8201C14.1853 49.9679 14.1853 48.9364 14.6493 48.0841L16.7322 44.265C17.2304 43.3512 18.1827 42.7839 19.2183 42.7839H35.2073V26.9695C33.5546 25.8991 32.4554 24.0434 32.4554 21.9204C32.4554 18.5992 35.1354 15.9062 38.4406 15.9062C41.7455 15.9062 44.4277 18.5994 44.4277 21.9204C44.4277 24.0434 43.3285 25.8991 41.6764 26.9695V28.5912H62.4917C63.7174 28.5912 64.8917 29.0766 65.7605 29.9417ZM62.1541 41.3346L64.6143 38.8909C64.7408 38.7664 64.8127 38.5959 64.8128 38.4184C64.8128 38.241 64.7409 38.0707 64.6144 37.9461L62.1543 35.5022C61.8908 35.2399 61.5357 35.0926 61.1623 35.0926H41.6764V35.2241V41.6127V41.7442H61.1622C61.5355 41.7442 61.8908 41.5969 62.1541 41.3346Z" fill="white"/>
<path d="M137.401 22.2363C121.861 22.2363 110.941 32.5263 110.941 47.1563C110.941 61.2963 121.231 70.8163 136.421 70.8163C151.471 70.8163 161.761 60.3863 161.761 45.1963C161.761 31.5463 151.891 22.2363 137.401 22.2363ZM136.771 33.4363C144.541 33.4363 149.651 38.6163 149.651 46.4563C149.651 54.1563 144.051 59.6163 136.141 59.6163C128.301 59.6163 123.051 54.4363 123.051 46.7363C123.051 39.1063 128.861 33.4363 136.771 33.4363Z" fill="white"/>
<path d="M212.699 23.2163H200.869L197.649 49.8163C196.739 57.1663 194.429 59.6163 188.549 59.6163C183.369 59.6163 180.779 57.1663 180.779 52.2663C180.779 50.8663 180.849 49.7463 180.989 48.4163L184.069 23.2163H172.309L169.229 48.4163C168.879 51.0763 168.669 53.5963 168.669 54.8563C168.669 64.7963 176.019 70.8163 188.129 70.8163C194.989 70.8163 200.729 68.9263 204.089 65.5663C207.099 62.6263 208.289 59.0563 209.409 50.2363L212.699 23.2163Z" fill="white"/>
<path d="M238.655 33.5063H248.455L249.715 23.2163H218.075L216.815 33.5063H226.825L222.345 69.9063H234.175L238.655 33.5063Z" fill="white"/>
<path d="M255.024 23.2163L249.284 69.9063H261.114L263.004 54.7163H268.744C276.444 54.7163 280.504 53.4563 283.654 50.1663C286.524 47.1563 288.134 42.6063 288.134 37.4963C288.134 32.5263 286.034 27.9063 282.744 25.5963C280.014 23.7763 277.214 23.2163 270.774 23.2163H255.024ZM265.664 32.5263H268.954C273.924 32.5263 276.024 34.1363 276.024 37.9863C276.024 42.1863 273.224 44.4263 267.974 44.4263H264.264L265.664 32.5263Z" fill="white"/>
<path d="M318.349 22.2363C302.809 22.2363 291.889 32.5263 291.889 47.1563C291.889 61.2963 302.179 70.8163 317.369 70.8163C332.419 70.8163 342.709 60.3863 342.709 45.1963C342.709 31.5463 332.839 22.2363 318.349 22.2363ZM317.719 33.4363C325.489 33.4363 330.599 38.6163 330.599 46.4563C330.599 54.1563 324.999 59.6163 317.089 59.6163C309.249 59.6163 303.999 54.4363 303.999 46.7363C303.999 39.1063 309.809 33.4363 317.719 33.4363Z" fill="white"/>
<path d="M381.607 26.5763C376.987 23.6363 372.787 22.3063 368.027 22.3063C358.017 22.3063 350.877 28.5363 350.877 37.2163C350.877 43.2363 353.397 46.3863 361.657 50.5163C365.997 52.6863 367.117 53.7363 367.117 55.8363C367.117 58.7063 364.597 60.5263 360.747 60.5263C357.737 60.5263 355.147 59.5463 351.017 56.7463L345.697 65.7063C351.997 69.5563 355.847 70.8163 361.447 70.8163C371.877 70.8163 379.297 64.1663 379.297 54.8563C379.297 48.6263 376.707 45.3363 368.937 41.7663C364.107 39.5263 362.987 38.4063 362.987 36.0963C362.987 33.6463 365.087 32.1063 368.307 32.1063C370.757 32.1063 373.347 33.2263 376.427 35.5363L381.607 26.5763Z" fill="white"/>
<path d="M406.477 33.5063H416.277L417.537 23.2163H385.897L384.637 33.5063H394.647L390.167 69.9063H401.997L406.477 33.5063Z" fill="white"/>
</svg>
