<svg width="159" height="35" viewBox="0 0 159 35" fill="none" xmlns="http://www.w3.org/2000/svg">
<path d="M54.2532 27.5967C52.382 27.5967 50.6636 27.155 49.098 26.2716C47.5323 25.3882 46.2912 24.1687 45.3747 22.6132C44.4582 21.0384 44 19.262 44 17.284C44 15.3251 44.4582 13.5679 45.3747 12.0123C46.2912 10.4376 47.5323 9.2085 49.098 8.3251C50.6636 7.4417 52.382 7 54.2532 7C56.1434 7 57.8619 7.4417 59.4084 8.3251C60.9741 9.2085 62.2056 10.4376 63.103 12.0123C64.0195 13.5679 64.4777 15.3251 64.4777 17.284C64.4777 19.262 64.0195 21.0384 63.103 22.6132C62.2056 24.1687 60.9741 25.3882 59.4084 26.2716C57.8428 27.155 56.1243 27.5967 54.2532 27.5967ZM54.2532 23.9959C55.4561 23.9959 56.5158 23.727 57.4323 23.1893C58.3487 22.6324 59.0647 21.845 59.5803 20.8272C60.0958 19.8093 60.3536 18.6283 60.3536 17.284C60.3536 15.9396 60.0958 14.7682 59.5803 13.7695C59.0647 12.7517 58.3487 11.9739 57.4323 11.4362C56.5158 10.8985 55.4561 10.6296 54.2532 10.6296C53.0503 10.6296 51.9811 10.8985 51.0455 11.4362C50.129 11.9739 49.413 12.7517 48.8975 13.7695C48.3819 14.7682 48.1242 15.9396 48.1242 17.284C48.1242 18.6283 48.3819 19.8093 48.8975 20.8272C49.413 21.845 50.129 22.6324 51.0455 23.1893C51.9811 23.727 53.0503 23.9959 54.2532 23.9959Z" fill="white"/>
<path d="M82.4396 11.4362V27.3951H78.4014V25.3786C77.8858 26.07 77.208 26.6173 76.3679 27.0206C75.5469 27.4047 74.6495 27.5967 73.6757 27.5967C72.4346 27.5967 71.3368 27.3374 70.3821 26.8189C69.4274 26.2812 68.6732 25.5034 68.1195 24.4856C67.5849 23.4486 67.3176 22.2195 67.3176 20.7984V11.4362H71.3272V20.2222C71.3272 21.4897 71.6423 22.4691 72.2723 23.1605C72.9024 23.8326 73.7616 24.1687 74.85 24.1687C75.9574 24.1687 76.8261 23.8326 77.4562 23.1605C78.0863 22.4691 78.4014 21.4897 78.4014 20.2222V11.4362H82.4396Z" fill="white"/>
<path d="M91.0641 14.749V22.4691C91.0641 23.0069 91.1882 23.4005 91.4364 23.6502C91.7037 23.8807 92.1429 23.9959 92.7539 23.9959H94.6155V27.3951H92.0952C88.7156 27.3951 87.0259 25.7435 87.0259 22.4403V14.749H85.1356V11.4362H87.0259V7.48971H91.0641V11.4362H94.6155V14.749H91.0641Z" fill="white"/>
<path d="M101.509 13.7407C102.025 13.011 102.731 12.406 103.628 11.9259C104.545 11.4266 105.586 11.177 106.75 11.177C108.106 11.177 109.328 11.513 110.416 12.1852C111.524 12.8573 112.392 13.8176 113.022 15.0658C113.672 16.2949 113.996 17.7257 113.996 19.358C113.996 20.9904 113.672 22.4403 113.022 23.7078C112.392 24.9561 111.524 25.9259 110.416 26.6173C109.328 27.3086 108.106 27.6543 106.75 27.6543C105.586 27.6543 104.554 27.4143 103.657 26.9342C102.779 26.454 102.063 25.8491 101.509 25.1193V35H97.4994V11.4362H101.509V13.7407ZM109.901 19.358C109.901 18.3978 109.7 17.572 109.299 16.8807C108.917 16.1701 108.402 15.6324 107.753 15.2675C107.123 14.9026 106.435 14.7202 105.691 14.7202C104.965 14.7202 104.278 14.9122 103.628 15.2963C102.998 15.6612 102.483 16.1989 102.082 16.9095C101.7 17.62 101.509 18.4554 101.509 19.4156C101.509 20.3759 101.7 21.2112 102.082 21.9218C102.483 22.6324 102.998 23.1797 103.628 23.5638C104.278 23.9287 104.965 24.1111 105.691 24.1111C106.435 24.1111 107.123 23.9191 107.753 23.535C108.402 23.1509 108.917 22.6036 109.299 21.893C109.7 21.1824 109.901 20.3374 109.901 19.358Z" fill="white"/>
<path d="M123.955 27.6543C122.428 27.6543 121.053 27.3182 119.831 26.6461C118.609 25.9547 117.645 24.9849 116.939 23.7366C116.251 22.4883 115.907 21.048 115.907 19.4156C115.907 17.7833 116.261 16.3429 116.967 15.0946C117.693 13.8464 118.676 12.8861 119.917 12.214C121.158 11.5226 122.542 11.177 124.07 11.177C125.597 11.177 126.982 11.5226 128.223 12.214C129.464 12.8861 130.438 13.8464 131.144 15.0946C131.87 16.3429 132.232 17.7833 132.232 19.4156C132.232 21.048 131.86 22.4883 131.115 23.7366C130.39 24.9849 129.397 25.9547 128.137 26.6461C126.896 27.3182 125.502 27.6543 123.955 27.6543ZM123.955 24.1399C124.681 24.1399 125.359 23.9671 125.989 23.6214C126.638 23.2565 127.154 22.7188 127.535 22.0082C127.917 21.2977 128.108 20.4335 128.108 19.4156C128.108 17.8985 127.707 16.7366 126.905 15.93C126.122 15.1043 125.158 14.6914 124.013 14.6914C122.867 14.6914 121.903 15.1043 121.12 15.93C120.356 16.7366 119.974 17.8985 119.974 19.4156C119.974 20.9328 120.347 22.1043 121.091 22.93C121.855 23.7366 122.81 24.1399 123.955 24.1399Z" fill="white"/>
<path d="M141.245 27.6543C139.947 27.6543 138.782 27.4239 137.751 26.963C136.72 26.4829 135.899 25.8395 135.288 25.0329C134.696 24.2263 134.372 23.3333 134.314 22.3539H138.353C138.429 22.9684 138.725 23.4774 139.24 23.8807C139.775 24.284 140.434 24.4856 141.217 24.4856C141.98 24.4856 142.572 24.332 142.992 24.0247C143.432 23.7174 143.651 23.3237 143.651 22.8436C143.651 22.3251 143.384 21.941 142.849 21.6914C142.334 21.4225 141.503 21.1344 140.357 20.8272C139.174 20.5391 138.2 20.2414 137.436 19.9342C136.692 19.6269 136.042 19.1564 135.489 18.5226C134.954 17.8889 134.687 17.0343 134.687 15.9588C134.687 15.0754 134.935 14.2689 135.431 13.5391C135.947 12.8093 136.672 12.2332 137.608 11.8107C138.563 11.3882 139.68 11.177 140.959 11.177C142.849 11.177 144.358 11.6571 145.484 12.6173C146.611 13.5583 147.231 14.8354 147.346 16.4486H143.508C143.451 15.8148 143.183 15.3155 142.706 14.9506C142.248 14.5665 141.627 14.3745 140.844 14.3745C140.119 14.3745 139.556 14.5089 139.155 14.7778C138.773 15.0466 138.582 15.4211 138.582 15.9012C138.582 16.439 138.849 16.8519 139.384 17.1399C139.918 17.4088 140.749 17.6872 141.875 17.9753C143.021 18.2634 143.966 18.561 144.711 18.8683C145.455 19.1756 146.095 19.6557 146.63 20.3086C147.183 20.9424 147.47 21.7874 147.489 22.8436C147.489 23.7654 147.231 24.5912 146.716 25.321C146.219 26.0508 145.494 26.6269 144.539 27.0494C143.603 27.4527 142.505 27.6543 141.245 27.6543Z" fill="white"/>
<path d="M155.449 14.749V22.4691C155.449 23.0069 155.573 23.4005 155.821 23.6502C156.088 23.8807 156.527 23.9959 157.138 23.9959H159V27.3951H156.48C153.1 27.3951 151.41 25.7435 151.41 22.4403V14.749H149.52V11.4362H151.41V7.48971H155.449V11.4362H159V14.749H155.449Z" fill="white"/>
<path fill-rule="evenodd" clip-rule="evenodd" d="M19.7254 0.991611C17.4354 -0.330537 14.614 -0.330537 12.3239 0.991611L3.70074 5.97022C1.41071 7.29236 0 9.73579 0 12.3801V22.3373C0 24.9816 1.41071 27.425 3.70074 28.7472L12.3239 33.7258C14.614 35.0479 17.4354 35.0479 19.7254 33.7258L28.3486 28.7472C30.6386 27.425 32.0494 24.9816 32.0494 22.3373V12.3801C32.0494 9.73579 30.6386 7.29236 28.3486 5.97022L19.7254 0.991611ZM24.3362 11.0806L26.2215 12.9381C26.5637 13.2748 26.7569 13.7359 26.7568 14.2172C26.7568 14.6986 26.5637 15.1596 26.2215 15.4968L24.3362 17.3547C24.0147 17.6748 23.5801 17.8544 23.1265 17.8544H15.4233V27.2578C15.4233 27.9228 14.888 28.4609 14.2259 28.4609C13.5653 28.4609 13.0293 27.9228 13.0293 27.2578V20.7687H7.1122C6.72888 20.7687 6.37652 20.5588 6.19213 20.2209L5.42132 18.8071C5.24959 18.4918 5.24959 18.11 5.42132 17.7946L6.19213 16.3813C6.37652 16.0431 6.72893 15.8331 7.1122 15.8331H13.0293V9.98063C12.4177 9.58451 12.0109 8.89777 12.0109 8.11209C12.0109 6.88302 13.0027 5.88641 14.2259 5.88641C15.4489 5.88641 16.4415 6.88307 16.4415 8.11209C16.4415 8.89777 16.0347 9.58451 15.4233 9.98063V10.5808H23.1266C23.5801 10.5808 24.0147 10.7604 24.3362 11.0806ZM23.0016 15.2968L23.9121 14.3924C23.9589 14.3464 23.9855 14.2833 23.9855 14.2176C23.9855 14.1519 23.9589 14.0889 23.9121 14.0428L23.0017 13.1384C22.9042 13.0413 22.7727 12.9868 22.6346 12.9868H15.4233V13.0355V15.3997V15.4484H22.6345C22.7727 15.4484 22.9042 15.3939 23.0016 15.2968Z" fill="white"/>
</svg>
