<svg width="59" height="55" viewBox="0 0 59 55" fill="none" xmlns="http://www.w3.org/2000/svg">
<path d="M14.4902 38.3262V34.8262H10.9902H10.9901H10.9901H10.99H10.9899H10.9898H10.9897H10.9895H10.9894H10.9892H10.989H10.9888H10.9886H10.9884H10.9882H10.9879H10.9876H10.9873H10.987H10.9867H10.9864H10.986H10.9856H10.9853H10.9849H10.9845H10.984H10.9836H10.9831H10.9827H10.9822H10.9817H10.9811H10.9806H10.9801H10.9795H10.9789H10.9783H10.9777H10.9771H10.9765H10.9758H10.9752H10.9745H10.9738H10.9731H10.9724H10.9717H10.9709H10.9702H10.9694H10.9686H10.9678H10.967H10.9661H10.9653H10.9644H10.9636H10.9627H10.9618H10.9609H10.96H10.959H10.9581H10.9571H10.9561H10.9551H10.9541H10.9531H10.9521H10.951H10.95H10.9489H10.9478H10.9467H10.9456H10.9445H10.9434H10.9422H10.9411H10.9399H10.9387H10.9375H10.9363H10.9351H10.9338H10.9326H10.9313H10.93H10.9288H10.9275H10.9262H10.9248H10.9235H10.9221H10.9208H10.9194H10.918H10.9166H10.9152H10.9138H10.9124H10.911H10.9095H10.908H10.9066H10.9051H10.9036H10.9021H10.9005H10.899H10.8975H10.8959H10.8943H10.8928H10.8912H10.8896H10.888H10.8863H10.8847H10.8831H10.8814H10.8797H10.8781H10.8764H10.8747H10.873H10.8712H10.8695H10.8678H10.866H10.8643H10.8625H10.8607H10.8589H10.8571H10.8553H10.8535H10.8516H10.8498H10.8479H10.8461H10.8442H10.8423H10.8404H10.8385H10.8366H10.8347H10.8327H10.8308H10.8288H10.8269H10.8249H10.8229H10.8209H10.8189H10.8169H10.8149H10.8129H10.8108H10.8088H10.8067H10.8047H10.8026H10.8005H10.7984H10.7963H10.7942H10.7921H10.79H10.7878H10.7857H10.7835H10.7814H10.7792H10.777H10.7748H10.7726H10.7704H10.7682H10.766H10.7637H10.7615H10.7592H10.757H10.7547H10.7525H10.7502H10.7479H10.7456H10.7433H10.741H10.7386H10.7363H10.734H10.7316H10.7293H10.7269H10.7246H10.7222H10.7198H10.7174H10.715H10.7126H10.7102H10.7078H10.7054H10.7029H10.7005H10.698H10.6956H10.6931H10.6906H10.6882H10.6857H10.6832H10.6807H10.6782H10.6757H10.6732H10.6706H10.6681H10.6656H10.663H10.6605H10.6579H10.6554H10.6528H10.6502H10.6476H10.6451H10.6425H10.6399H10.6373H10.6346H10.632H10.6294H10.6268H10.6241H10.6215H10.6188H10.6162H10.6135H10.6109H10.6082H10.6055H10.6028H10.6001H10.5975H10.5948H10.5921H10.5893H10.5866H10.5839H10.5812H10.5785H10.5757H10.573H10.5702H10.5675H10.5647H10.562H10.5592H10.5564H10.5537H10.5509H10.5481H10.5453H10.5425H10.5397H10.5369H10.5341H10.5313H10.5285H10.5257H10.5228H10.52H10.5172H10.5143H10.5115H10.5086H10.5058H10.5029H10.5001H10.4972H10.4944H10.4915H10.4886H10.4857H10.4829H10.48H10.4771H10.4742H10.4713H10.4684H10.4655H10.4626H10.4597H10.4568H10.4539H10.4509H10.448H10.4451H10.4422H10.4392H10.4363H10.4334H10.4304H10.4275H10.4245H10.4216H10.4186H10.4157H10.4127H10.4098H10.4068H10.4038H10.4009H10.3979H10.3949H10.392H10.389H10.386H10.383H10.38H10.3771H10.3741H10.3711H10.3681H10.3651H10.3621H10.3591H10.3561H10.3531H10.3501H10.3471H10.3441H10.3411H10.3381H10.3351H10.332H10.329H10.326H10.323H10.32H10.317H10.3139H10.3109H10.3079H10.3049H10.3018H10.2988H10.2958H10.2928H10.2897H10.2867H10.2837H10.2806H10.2776H10.2746H10.2715H10.2685H10.2655H10.2624H10.2594H10.2563H10.2533H10.2503H10.2472H10.2442H10.2412H10.2381H10.2351H10.232H10.229H10.226H10.2229H10.2199H10.2168H10.2138H10.2108H10.2077H10.2047H10.2017H10.1986H10.1956H10.1925H10.1895H10.1865H10.1834H10.1804H10.1774H10.1743H10.1713H10.1683H10.1652H10.1622H10.1592H10.1561H10.1531H10.1501H10.1471H10.144H10.141H10.138H10.135H10.132H10.1289H10.1259H10.1229H10.1199H10.1169H10.1139H10.1109H10.1079H10.1049H10.1018H10.0988H10.0958H10.0928H10.0899H10.0869H10.0839H10.0809H10.0779H10.0749H10.0719H10.0689H10.066H10.063H10.06H10.057H10.0541H10.0511H10.0481H10.0452H10.0422H10.0392H10.0363H10.0333H10.0304H10.0274H10.0245H10.0216H10.0186H10.0157H10.0128H10.0098H10.0069H10.004H10.0011H9.99814H9.99523H9.99232H9.98941H9.98651H9.98361H9.98071H9.97782H9.97493H9.97205H9.96916H9.96629H9.96341H9.96054H9.95767H9.95481H9.95195H9.9491H9.94625H9.9434H9.94056H9.93772H9.93489H9.93205H9.92923H9.92641H9.92359H9.92078H9.91797H9.91516H9.91236H9.90957H9.90678H9.90399H9.90121H9.89844H9.89566H9.8929H9.89014H9.88738H9.88463H9.88188H9.87914H9.8764H9.87367H9.87094H9.86822H9.8655H9.86279H9.86009H9.85739H9.85469H9.852H9.84932H9.84664H9.84397H9.8413H9.83864H9.83598H9.83333H9.82305H9.81275H9.80245H9.79213H9.78181H9.77147H9.76113H9.75077H9.74041H9.73003H9.71964H9.70925H9.69884H9.68843H9.678H9.66757H9.65713H9.64667H9.63621H9.62573H9.61525H9.60476H9.59426H9.58375H9.57322H9.56269H9.55215H9.5416H9.53105H9.52048H9.5099H9.49932H9.48872H9.47812H9.4675H9.45688H9.44625H9.43561H9.42496H9.4143H9.40363H9.39295H9.38227H9.37158H9.36087H9.35016H9.33944H9.32871H9.31798H9.30723H9.29648H9.28571H9.27494H9.26416H9.25337H9.24258H9.23177H9.22096H9.21014H9.19931H9.18847H9.17762H9.16677H9.1559H9.14503H9.13416H9.12327H9.11237H9.10147H9.09056H9.07964H9.06872H9.05778H9.04684H9.03589H9.02493H9.01397H9.003H8.99202H8.98103H8.97004H8.95903H8.94802H8.93701H8.92598H8.91495H8.90391H8.89287H8.88181H8.87075H8.85968H8.84861H8.83753H8.82644H8.81534H8.80424H8.79313H8.78201H8.77089H8.75975H8.74862H8.73747H8.72632H8.71516H8.704H8.69283H8.68165H8.67046H8.65927H8.64808H8.63687H8.62566H8.61445H8.60322H8.59199H8.58076H8.56952H8.55827H8.54701H8.53575H8.52449H8.51321H8.50193H8.49065H8.47936H8.46806H8.45676H8.44545H8.43414H8.42282H8.41149H8.40016H8.38882H8.37748H8.36613H8.35478H8.34342H8.33205H8.32068H8.3093H8.29792H8.28653H8.27514H8.26374H8.25234H8.24093H8.22952H8.2181H8.20668H8.19525H8.18381H8.17237H8.16093H8.14948H8.13803H8.12657H8.1151H8.10364H8.09216H8.08068H8.0692H8.05771H8.04622H8.03472H8.02322H8.01172H8.00021H7.98869H7.97717H7.96565H7.95412H7.94259H7.93105H7.91951H7.90796H7.89641H7.88486H7.8733H7.86174H7.85017H7.8386H7.82703H7.81545H7.80387H7.79228H7.78069H7.7691H7.7575H7.7459H7.7343H7.72269H7.71107H7.69946H7.68784H7.67622H7.66459H7.65296H7.64133H7.62969H7.61805H7.60641H7.59476H7.58311H7.57146H7.5598H7.54814H7.53648H7.52481H7.51314H7.50147H7.48979H7.47812H7.46643H7.45475H7.44306H7.43137H7.41968H7.40799H7.39629H7.38459H7.37289H7.36118H7.34947H7.33776H7.32605H7.31433H7.30261H7.29089H7.27917H7.26744H7.25572H7.24399H7.23225H7.22052H7.20878H7.19704H7.1853H7.17356H7.16182H7.15007H7.13832H7.12657H7.11482H7.10306H7.09131H7.07955H7.06779H7.05603H7.04426H7.0325H7.02073H7.00897H6.9972H6.98542H6.97365H6.96188H6.9501H6.93833H6.92655H6.91477H6.90299H6.89121H6.87942H6.86764H6.85585H6.84407H6.83228H6.82049H6.8087H6.79691H6.78512H6.77333H6.76154H6.74974H6.73795H6.72615H6.71436H6.70256H6.69076H6.67897H6.66717H6.65537H6.64357H6.63177H6.61997H6.60817H6.59637H6.58457H6.57277H6.56096H6.54916H6.53736H6.52556H6.51375H6.50195H6.49015H6.47835H6.46654H6.45474H6.44294H6.43114H6.41933H6.40753H6.39573H6.38393H6.37213H6.36033H6.34853H6.33673H6.32493H6.31313H6.30133H6.28953H6.27773H6.26594H6.25414H6.24235H6.23055H6.21876H6.20696H6.19517H6.18338H6.17159H6.1598H6.14801H6.13622H6.12444H6.11265H6.10087H6.08908H6.0773H6.06552H6.05374H6.04196H6.03018H6.01841H6.00663H5.99486H5.98309H5.97132H5.95955H5.94778H5.93602H5.92425H5.91249H5.90073H5.88897H5.87722H5.86546H5.85371H5.84196H5.83021H5.81846H5.80671H5.79497H5.78323H5.77149H5.75975H5.74802H5.73628H5.72455H5.71282H5.7011H5.68937H5.67765H5.66593H5.65422H5.6425H5.63079H5.61908H5.60737H5.59567H5.58397H5.57227H5.56057H5.54888H5.53719H5.5255H5.51381H5.50213H5.49045H5.47878H5.4671H5.45543H5.44377H5.4321H5.42044H5.40878H5.39713H5.38548H5.37383H5.36218H5.35054H5.3389H5.32727H5.31564H5.30401H5.29238H5.28076H5.26915H5.25753H5.24592H5.23432H5.22271H5.21111H5.19952H5.18793H5.17634H5.16476H5.15318H5.1416H5.13003H5.11846H5.1069H5.09534H5.08378H5.07223H5.06068H5.04914H5.0376H5.02607H5.01454H5.00301H4.99149H4.97997H4.96846H4.95695H4.94545H4.93395H4.92246H4.91097H4.89948H4.888H4.87653H4.86506H4.85359H4.84213H4.83067H4.81922H4.80778H4.79633H4.7849H4.77347H4.76204H4.75062H4.7392H4.72779H4.71639H4.70499H4.69359H4.6822H4.67082H4.65944H4.64807H4.6367H4.62534H4.61398H4.60263H4.59129H4.57995H4.56861H4.55728H4.54596H4.53465H4.52333H4.51203H4.50073H4.48944H4.47815H4.46687H4.45559H4.44432H4.43306H4.4218H4.41055H4.39931H4.38807H4.37684H4.36561H4.35439H4.34318H4.33197H4.32077H4.30958H4.29839H4.28721H4.27604H4.26487H4.25371H4.24256H4.23141H4.22027H4.20913H4.19801H4.18689H4.17577H4.16467H4.15357H4.14248H4.13139H4.12031H4.10924H4.09818H4.08712H4.07607H4.06503H4.054H4.04297H4.03195H4.02094H4.00993H3.99893C3.72401 34.8262 3.5 34.6036 3.5 34.3262V4C3.5 3.72386 3.72386 3.5 4 3.5H55C55.2761 3.5 55.5 3.72386 55.5 4V34.3262C55.5 34.6023 55.2761 34.8262 55 34.8262H41.5H40.4694L39.6032 35.3847L15.2612 51.0814C14.9284 51.2959 14.4902 51.057 14.4902 50.6611V38.3262Z" stroke="#343434" stroke-width="7"/>
</svg>
