<svg width="41" height="17" viewBox="0 0 41 17" fill="none" xmlns="http://www.w3.org/2000/svg">
<path d="M35.7624 12.2102V0.0096935L31.4611 2.77383V16.546H41V12.2102H35.7624Z" fill="white"/>
<path d="M25.3878 11.3946C24.6829 12.0192 23.7606 12.3994 22.7507 12.3994C20.5452 12.3994 18.7506 10.591 18.7506 8.36759C18.7506 6.14415 20.5452 4.33582 22.7507 4.33582C24.1657 4.33582 25.4109 5.08117 26.122 6.20186L29.7478 3.87368C28.2717 1.54695 25.688 0 22.7507 0C19.6561 0 16.9536 1.71668 15.5261 4.25338C14.0985 1.71668 11.396 0 8.30141 0C3.72394 0 0 3.75341 0 8.36759C0 12.9818 3.72394 16.7347 8.30141 16.7347C11.396 16.7347 14.0985 15.018 15.5261 12.4813C16.9536 15.018 19.6561 16.7347 22.7507 16.7347C24.8455 16.7347 26.7609 15.9476 28.2231 14.6529L29.8714 16.5475H30.1279V9.03971H23.3391L25.3878 11.3946ZM8.30141 12.3994C6.09591 12.3994 4.3013 10.591 4.3013 8.36759C4.3013 6.14415 6.09591 4.33582 8.30141 4.33582C10.5069 4.33582 12.3015 6.14464 12.3015 8.36759C12.3015 10.5905 10.5074 12.3994 8.30141 12.3994Z" fill="white"/>
</svg>