<svg width="56" height="58" viewBox="0 0 56 58" fill="none" xmlns="http://www.w3.org/2000/svg">
<path fill-rule="evenodd" clip-rule="evenodd" d="M27.9994 28.1087C35.7199 28.1087 42.0075 21.8017 42.0075 14.0543C42.0075 6.31084 35.7198 0 27.9994 0C20.279 0 13.9873 6.31084 13.9873 14.0543C13.9873 21.7979 20.2789 28.1087 27.9994 28.1087V28.1087Z" fill="#343434"/>
<path fill-rule="evenodd" clip-rule="evenodd" d="M28 30.0016C27.9997 30.0007 27.9988 30 27.9977 30C12.5486 30.0009 0 41.6705 0 55.9797V55.9797C0 57.0808 0.892372 57.9736 1.99351 57.9742L54.0104 57.999C55.1091 57.9996 56 57.1091 56 56.0104V56.0104C56 41.6738 43.4504 30.0041 28.0023 30.0033C28.0012 30.0033 28.0003 30.0026 28 30.0016V30.0016Z" fill="#343434"/>
</svg>
