<svg width="57" height="41" viewBox="0 0 57 41" fill="none" xmlns="http://www.w3.org/2000/svg">
<path d="M28.3568 0C9.72275 0 0 20.5 0 20.5C0 20.5 6.17967 41 28.3568 41C50.7192 41 56.7137 20.5 56.7137 20.5C56.7137 20.5 47.1797 0 28.3568 0ZM28.3568 33.5435C21.0891 33.5435 15.3133 27.7678 15.3133 20.5C15.3133 13.2322 21.0891 7.4565 28.3568 7.4565C35.6246 7.4565 41.4004 13.2322 41.4004 20.5C41.4004 27.7678 35.6246 33.5435 28.3568 33.5435Z" fill="#343434"/>
<path d="M33.9475 20.5C33.9475 23.5888 31.4457 26.0906 28.3569 26.0906C25.2682 26.0906 22.7664 23.5888 22.7664 20.5C22.7664 17.4112 25.2682 14.9094 28.3569 14.9094C31.4457 14.9094 33.9475 17.4112 33.9475 20.5Z" fill="#343434"/>
</svg>
